<?xml version="1.0" encoding="iso-8859-1"?>
<!-- Generator: Adobe Illustrator 19.0.0, SVG Export Plug-In . SVG Version: 6.00 Build 0)  -->
<svg version="1.1" id="Layer_1" xmlns="http://www.w3.org/2000/svg" xmlns:xlink="http://www.w3.org/1999/xlink" x="0px" y="0px"
	 viewBox="0 0 512.003 512.003" style="enable-background:new 0 0 512.003 512.003;" xml:space="preserve">
<circle style="fill:#FDDF6D;" cx="256.001" cy="256.001" r="256.001"/>
<path style="fill:#FCC56B;" d="M310.859,474.208c-141.385,0-256-114.615-256-256c0-75.537,32.722-143.422,84.757-190.281
	C56.738,70.303,0,156.525,0,256c0,141.385,114.615,256,256,256c65.849,0,125.883-24.87,171.243-65.718
	C392.325,464.135,352.77,474.208,310.859,474.208z"/>
<g>
	<circle style="fill:#7F184C;" cx="211.414" cy="176.754" r="31.243"/>
	<circle style="fill:#7F184C;" cx="387.321" cy="176.754" r="31.243"/>
</g>
<g>
	<path style="fill:#FFFFFF;" d="M179.105,302.244c-1.57,0.065-58.939,2.322-101.949-4.68l-0.314-0.051
		c-17.502-2.849-41.47-6.75-70.689-19.956c-1.729-0.782-3.558-1.041-5.318-0.865c0.608,7.598,1.554,15.1,2.811,22.497
		c28.929,12.22,52.407,16.044,69.851,18.884l0.314,0.05c27.24,4.434,59.621,5.343,81.497,5.343c14.9,0,24.931-0.422,25.139-0.437
		c5.735-0.453,10.016-5.468,9.563-11.2C189.564,306.192,184.716,301.928,179.105,302.244z"/>
	<path style="fill:#FFFFFF;" d="M176.997,378.913c-14.639,3.821-20.119,5.129-37.928,7.226c-33.021,3.887-64.638,3.317-96.657-1.737
		c-2.552-0.4-5.031,0.168-7.074,1.425c4.167,7.068,8.663,13.917,13.469,20.529c15.911,2.093,31.764,3.154,47.755,3.154
		c14.808,0,29.735-0.896,44.939-2.686c19.321-2.273,26.058-3.92,40.758-7.758c5.565-1.452,8.898-7.143,7.446-12.707
		C188.25,380.794,182.561,377.459,176.997,378.913z"/>
	<path style="fill:#FFFFFF;" d="M502.306,291.298c-0.122,0.085-12.553,8.408-37.248,10.989c-25.861,2.702-38.839,0.61-39.097,0.568
		c-5.649-0.989-11.032,2.763-12.052,8.408c-1.021,5.66,2.74,11.077,8.4,12.099c0.392,0.071,6.487,1.132,18.329,1.132
		c6.905,0,15.766-0.361,26.585-1.491c17.993-1.88,30.703-6.338,38.37-9.867c1.766-7.748,3.178-15.63,4.224-23.627
		C507.269,289.129,504.579,289.686,502.306,291.298z"/>
	<path style="fill:#FFFFFF;" d="M471.554,379.561c-0.075,0.021-7.707,2.111-20.687,2.111c-13.565,0-25.81-2.306-25.932-2.33
		c-5.652-1.078-11.102,2.616-12.186,8.262c-1.086,5.647,2.612,11.107,8.261,12.193c0.573,0.11,14.234,2.702,29.858,2.702
		c6.279,0,11.555-0.414,15.723-0.93c4.686-6.767,9.054-13.769,13.083-20.987C477.3,379.199,474.395,378.742,471.554,379.561z"/>
</g>
<ellipse transform="matrix(0.2723 -0.9622 0.9622 0.2723 133.5904 343.0237)" style="fill:#FCEB88;" cx="293.58" cy="83.191" rx="29.854" ry="53.46"/>
<path style="fill:#FFFFFF;" d="M398.416,423.097H206.554c-14.218,0-25.743-11.525-25.743-25.743v-95.706
	c0-14.218,11.525-25.743,25.743-25.743h191.862c14.218,0,25.743,11.525,25.743,25.743v95.706
	C424.159,411.571,412.634,423.097,398.416,423.097z"/>
<path style="fill:#F2F2F2;" d="M250.989,386.656c-14.218,0-25.743-11.525-25.743-25.743v-85.007h-18.692
	c-14.218,0-25.743,11.525-25.743,25.743v95.706c0,14.218,11.525,25.743,25.743,25.743h191.862c14.218,0,25.743-11.525,25.743-25.743
	v-10.699H250.989z"/>
<g>
</g>
<g>
</g>
<g>
</g>
<g>
</g>
<g>
</g>
<g>
</g>
<g>
</g>
<g>
</g>
<g>
</g>
<g>
</g>
<g>
</g>
<g>
</g>
<g>
</g>
<g>
</g>
<g>
</g>
</svg>
